<svg width="95" height="29" viewBox="0 0 95 29" fill="none" xmlns="http://www.w3.org/2000/svg">
<rect x="0.3625" y="0.3625" width="93.525" height="28.275" rx="3.9875" fill="white"/>
<path fill-rule="evenodd" clip-rule="evenodd" d="M18.6824 14.9208C18.6982 13.6909 19.343 12.5548 20.3909 11.9106C19.7269 10.9622 18.6545 10.3825 17.4973 10.3463C16.2799 10.2185 15.0996 11.0748 14.4792 11.0748C13.8468 11.0748 12.8916 10.3589 11.863 10.3801C10.5097 10.4238 9.27861 11.1746 8.62018 12.3578C7.21803 14.7854 8.26391 18.3532 9.60705 20.3155C10.2791 21.2763 11.0644 22.3497 12.0921 22.3116C13.0977 22.2699 13.4733 21.6704 14.6871 21.6704C15.8897 21.6704 16.2421 22.3116 17.2906 22.2874C18.3697 22.2699 19.0496 21.3223 19.698 20.3523C20.1808 19.6676 20.5524 18.9109 20.7988 18.1102C19.5172 17.5682 18.6839 16.3123 18.6824 14.9208Z" fill="black"/>
<path fill-rule="evenodd" clip-rule="evenodd" d="M16.7019 9.05572C17.2903 8.34942 17.5801 7.44159 17.5099 6.52502C16.6111 6.61943 15.7807 7.04904 15.1844 7.72824C14.5956 8.39837 14.2973 9.27507 14.3552 10.1652C15.2662 10.1746 16.1311 9.76569 16.7019 9.05572Z" fill="black"/>
<path d="M29.5862 5.91508H31.1633C31.8451 5.91508 32.3771 6.11792 32.7595 6.52361C33.1418 6.92717 33.333 7.49004 33.333 8.21221C33.333 8.9365 33.1418 9.50149 32.7595 9.90718C32.3793 10.3107 31.8472 10.5125 31.1633 10.5125H29.5862V5.91508ZM30.1597 6.43121V9.99639H31.125C31.6369 9.99639 32.0352 9.84027 32.3198 9.52804C32.6044 9.21581 32.7467 8.77932 32.7467 8.21858C32.7467 7.65571 32.6034 7.2171 32.3166 6.90275C32.032 6.58839 31.6348 6.43121 31.125 6.43121H30.1597Z" fill="#666666"/>
<path d="M36.9554 10.0983C36.6729 10.4148 36.2873 10.5731 35.7988 10.5731C35.3103 10.5731 34.9237 10.4148 34.6391 10.0983C34.3566 9.77974 34.2154 9.34537 34.2154 8.79525C34.2154 8.24301 34.3566 7.80864 34.6391 7.49216C34.9216 7.17568 35.3082 7.01744 35.7988 7.01744C36.2895 7.01744 36.676 7.17568 36.9585 7.49216C37.241 7.80864 37.3823 8.24301 37.3823 8.79525C37.3823 9.34537 37.24 9.77974 36.9554 10.0983ZM35.0469 9.74469C35.2232 9.96771 35.4738 10.0792 35.7988 10.0792C36.1238 10.0792 36.3744 9.96771 36.5507 9.74469C36.727 9.51954 36.8152 9.20306 36.8152 8.79525C36.8152 8.38744 36.727 8.07202 36.5507 7.849C36.3744 7.62385 36.1238 7.51128 35.7988 7.51128C35.4738 7.51128 35.2232 7.62385 35.0469 7.849C34.8706 8.07202 34.7825 8.38744 34.7825 8.79525C34.7825 9.20306 34.8706 9.51954 35.0469 9.74469Z" fill="#666666"/>
<path d="M42.5658 7.07798L41.6037 10.5125H41.0461L40.2783 7.85537H40.2273L39.4626 10.5125H38.9083L37.9461 7.07798H38.5005L39.1759 9.82434H39.2269L39.9947 7.07798H40.5204L41.2882 9.82434H41.3392L42.0147 7.07798H42.5658Z" fill="#666666"/>
<path d="M43.4291 10.5125V7.07798H43.9516V7.6196H44.0026C44.1853 7.21816 44.5294 7.01744 45.0349 7.01744C45.4193 7.01744 45.7156 7.12789 45.9238 7.34879C46.1319 7.56757 46.236 7.88086 46.236 8.28867V10.5125H45.688V8.42249C45.688 8.1145 45.6211 7.88617 45.4873 7.73749C45.3556 7.58668 45.1528 7.51128 44.8788 7.51128C44.6026 7.51128 44.3828 7.59836 44.2193 7.77253C44.0578 7.94458 43.9771 8.18035 43.9771 8.47983V10.5125H43.4291Z" fill="#666666"/>
<path d="M47.402 10.5125V5.71436H47.95V10.5125H47.402Z" fill="#666666"/>
<path d="M51.7126 10.0983C51.4301 10.4148 51.0446 10.5731 50.556 10.5731C50.0675 10.5731 49.6809 10.4148 49.3963 10.0983C49.1138 9.77974 48.9726 9.34537 48.9726 8.79525C48.9726 8.24301 49.1138 7.80864 49.3963 7.49216C49.6788 7.17568 50.0654 7.01744 50.556 7.01744C51.0467 7.01744 51.4333 7.17568 51.7157 7.49216C51.9982 7.80864 52.1395 8.24301 52.1395 8.79525C52.1395 9.34537 51.9972 9.77974 51.7126 10.0983ZM49.8041 9.74469C49.9804 9.96771 50.2311 10.0792 50.556 10.0792C50.881 10.0792 51.1316 9.96771 51.3079 9.74469C51.4842 9.51954 51.5724 9.20306 51.5724 8.79525C51.5724 8.38744 51.4842 8.07202 51.3079 7.849C51.1316 7.62385 50.881 7.51128 50.556 7.51128C50.2311 7.51128 49.9804 7.62385 49.8041 7.849C49.6278 8.07202 49.5397 8.38744 49.5397 8.79525C49.5397 9.20306 49.6278 9.51954 49.8041 9.74469Z" fill="#666666"/>
<path d="M54.188 10.092C54.4705 10.092 54.7041 10.0102 54.8889 9.84664C55.0758 9.68309 55.1693 9.47813 55.1693 9.23174V8.91632L54.2453 8.97686C53.9862 8.99385 53.7961 9.04801 53.675 9.13934C53.554 9.23068 53.4934 9.36343 53.4934 9.5376C53.4934 9.70964 53.5582 9.84558 53.6878 9.94541C53.8173 10.0431 53.9841 10.092 54.188 10.092ZM54.086 10.5731C53.7483 10.5731 53.4701 10.4807 53.2513 10.2959C53.0346 10.109 52.9263 9.86045 52.9263 9.55034C52.9263 9.24448 53.0346 9.00447 53.2513 8.8303C53.4679 8.65613 53.777 8.55736 54.1784 8.534L55.1693 8.47346V8.16123C55.1693 7.94883 55.1034 7.78634 54.9717 7.67377C54.8401 7.56119 54.6468 7.50491 54.3919 7.50491C54.1859 7.50491 54.0149 7.54208 53.8789 7.61642C53.743 7.69076 53.6559 7.7959 53.6177 7.93184H53.0633C53.0994 7.65784 53.2407 7.43694 53.4871 7.26914C53.7356 7.10134 54.0435 7.01744 54.411 7.01744C54.8273 7.01744 55.1491 7.11834 55.3764 7.32012C55.6036 7.5219 55.7173 7.80227 55.7173 8.16123V10.5125H55.1948V10.0059H55.1438C55.0333 10.1886 54.8868 10.3288 54.7041 10.4265C54.5215 10.5242 54.3154 10.5731 54.086 10.5731Z" fill="#666666"/>
<path d="M58.1322 10.5731C57.6925 10.5731 57.342 10.4116 57.0808 10.0888C56.8195 9.76593 56.6889 9.33475 56.6889 8.79525C56.6889 8.25787 56.8195 7.82776 57.0808 7.50491C57.3442 7.17993 57.6946 7.01744 58.1322 7.01744C58.3722 7.01744 58.5867 7.07161 58.7757 7.17993C58.9669 7.28613 59.1113 7.43269 59.209 7.6196H59.2568V5.71436H59.8048V10.5125H59.2823V9.96453H59.2313C59.123 10.1557 58.9722 10.3054 58.7789 10.4138C58.5856 10.52 58.3701 10.5731 58.1322 10.5731ZM58.2596 7.51128C57.9474 7.51128 57.702 7.62598 57.5236 7.85537C57.3452 8.08264 57.256 8.39594 57.256 8.79525C57.256 9.19669 57.3442 9.51105 57.5204 9.73832C57.6989 9.96559 57.9452 10.0792 58.2596 10.0792C58.5718 10.0792 58.8182 9.96453 58.9988 9.73513C59.1793 9.50574 59.2696 9.19244 59.2696 8.79525C59.2696 8.40231 59.1782 8.09008 58.9956 7.85856C58.815 7.62704 58.5697 7.51128 58.2596 7.51128Z" fill="#666666"/>
<path d="M65.5394 10.0983C65.2569 10.4148 64.8714 10.5731 64.3829 10.5731C63.8944 10.5731 63.5078 10.4148 63.2232 10.0983C62.9407 9.77974 62.7994 9.34537 62.7994 8.79525C62.7994 8.24301 62.9407 7.80864 63.2232 7.49216C63.5057 7.17568 63.8923 7.01744 64.3829 7.01744C64.8736 7.01744 65.2601 7.17568 65.5426 7.49216C65.8251 7.80864 65.9664 8.24301 65.9664 8.79525C65.9664 9.34537 65.8241 9.77974 65.5394 10.0983ZM63.631 9.74469C63.8073 9.96771 64.0579 10.0792 64.3829 10.0792C64.7079 10.0792 64.9585 9.96771 65.1348 9.74469C65.3111 9.51954 65.3993 9.20306 65.3993 8.79525C65.3993 8.38744 65.3111 8.07202 65.1348 7.849C64.9585 7.62385 64.7079 7.51128 64.3829 7.51128C64.0579 7.51128 63.8073 7.62385 63.631 7.849C63.4547 8.07202 63.3666 8.38744 63.3666 8.79525C63.3666 9.20306 63.4547 9.51954 63.631 9.74469Z" fill="#666666"/>
<path d="M66.9571 10.5125V7.07798H67.4796V7.6196H67.5306C67.7133 7.21816 68.0573 7.01744 68.5629 7.01744C68.9473 7.01744 69.2436 7.12789 69.4518 7.34879C69.6599 7.56757 69.764 7.88086 69.764 8.28867V10.5125H69.216V8.42249C69.216 8.1145 69.1491 7.88617 69.0153 7.73749C68.8836 7.58668 68.6807 7.51128 68.4067 7.51128C68.1306 7.51128 67.9108 7.59836 67.7472 7.77253C67.5858 7.94458 67.5051 8.18035 67.5051 8.47983V10.5125H66.9571Z" fill="#666666"/>
<path d="M73.0995 6.18907H73.6475V7.07798H74.4122V7.53677H73.6475V9.48025C73.6475 9.68203 73.6879 9.82859 73.7686 9.91992C73.8493 10.0113 73.9789 10.0569 74.1573 10.0569C74.2359 10.0569 74.3208 10.0527 74.4122 10.0442V10.5062C74.2911 10.5274 74.1838 10.538 74.0904 10.538C73.7357 10.538 73.4818 10.4669 73.3289 10.3245C73.176 10.1822 73.0995 9.94753 73.0995 9.62043V7.53677H72.5452V7.07798H73.0995V6.18907Z" fill="#666666"/>
<path d="M75.4029 10.5125V5.71436H75.9509V7.6196H76.0019C76.089 7.42632 76.2217 7.27764 76.4001 7.17356C76.5807 7.06948 76.8005 7.01744 77.0596 7.01744C77.425 7.01744 77.7138 7.13002 77.9262 7.35516C78.1386 7.57819 78.2448 7.88936 78.2448 8.28867V10.5125H77.6968V8.42249C77.6968 7.81501 77.4324 7.51128 76.9035 7.51128C76.6019 7.51128 76.3672 7.59943 76.1994 7.77572C76.0337 7.94989 75.9509 8.1846 75.9509 8.47983V10.5125H75.4029Z" fill="#666666"/>
<path d="M80.7458 7.50172C80.4717 7.50172 80.2466 7.59412 80.0703 7.77891C79.894 7.9637 79.7952 8.20796 79.774 8.51169H81.6665C81.6601 8.20796 81.5731 7.9637 81.4053 7.77891C81.2375 7.59412 81.0176 7.50172 80.7458 7.50172ZM81.6506 9.62362H82.1986C82.1157 9.92098 81.9469 10.1536 81.692 10.3214C81.4392 10.4892 81.1259 10.5731 80.7521 10.5731C80.2763 10.5731 79.8993 10.4138 79.6211 10.0952C79.3428 9.77443 79.2037 9.34219 79.2037 8.79844C79.2037 8.25681 79.3439 7.82457 79.6243 7.50172C79.9046 7.17887 80.2806 7.01744 80.7521 7.01744C81.2152 7.01744 81.5794 7.17144 81.8449 7.47942C82.1104 7.7874 82.2432 8.20902 82.2432 8.74428V8.95455H79.774V8.98004C79.7889 9.31989 79.8845 9.58964 80.0608 9.78929C80.2392 9.98895 80.4739 10.0888 80.7649 10.0888C81.2088 10.0888 81.504 9.93373 81.6506 9.62362Z" fill="#666666"/>
<path d="M41.2669 15.9331C42.9329 15.9331 44.031 17.25 44.031 19.2841C44.031 21.3239 42.9393 22.6344 41.2917 22.6344C40.4401 22.679 39.638 22.2329 39.2265 21.486H39.1953V24.7372H37.848V16.0018H39.1521V17.0936H39.1769C39.6067 16.3513 40.4097 15.9055 41.2669 15.9331ZM48.4914 15.9331C50.1574 15.9331 51.2555 17.25 51.2555 19.2841C51.2555 21.3239 50.1638 22.6344 48.5162 22.6344C47.6646 22.679 46.8625 22.2329 46.451 21.486H46.4198V24.7372H45.0725V16.0018H46.3766V17.0936H46.4014C46.8312 16.3513 47.6342 15.9055 48.4914 15.9331ZM58.1643 13.4126C60.0667 13.4126 61.3708 14.4796 61.4147 16.0329H60.0546C59.9732 15.1345 59.2305 14.5921 58.1451 14.5921C57.0597 14.5921 56.3171 15.1409 56.3171 15.9395C56.3171 16.576 56.7914 16.9505 57.9518 17.2372L58.9438 17.4808C60.7909 17.9176 61.5584 18.6596 61.5584 19.9765C61.5584 21.6609 60.2168 22.7158 58.0828 22.7158C56.0862 22.7158 54.7382 21.6856 54.6511 20.0572L56.0303 20.0573C56.1302 20.9501 56.9975 21.5363 58.1827 21.5363C59.3183 21.5363 60.1354 20.9501 60.1354 20.1451C60.1354 19.4462 59.6426 19.0278 58.4758 18.7411L57.309 18.46C55.6558 18.0607 54.8883 17.2875 54.8883 16.0329C54.8883 14.4796 56.242 13.4126 58.1643 13.4126ZM69.5505 15.9211C71.4536 15.9211 72.6643 17.2189 72.6643 19.2841C72.6643 21.3551 71.46 22.6472 69.5505 22.6472C67.6416 22.6472 66.4374 21.3551 66.4374 19.2841C66.4374 17.2189 67.6537 15.9211 69.5505 15.9211ZM80.4608 15.9211C82.2769 15.9211 83.4189 17.1686 83.4189 19.1588V19.6204H78.7829V19.7019C78.7396 20.1905 78.9083 20.6743 79.2462 21.03C79.584 21.3857 80.0584 21.5791 80.5486 21.5611C81.2025 21.6224 81.8189 21.2469 82.0645 20.6378L83.3438 20.6379C83.1626 21.8294 82.0022 22.6472 80.5175 22.6472C78.608 22.6472 77.4228 21.3678 77.4228 19.3153C77.4228 17.2564 78.6144 15.9211 80.4608 15.9211ZM64.4662 14.4484V16.0018H65.7145V17.0688H64.4662V20.6874C64.4662 21.2496 64.7162 21.5115 65.2649 21.5115C65.413 21.509 65.561 21.4985 65.7081 21.4804V22.541C65.4614 22.5871 65.2106 22.6079 64.9597 22.6033C63.6308 22.6033 63.1125 22.1041 63.1125 20.8311V17.0688H62.1581V16.0018H63.1125V14.4484H64.4662ZM33.7606 13.5627L37.0111 22.5658H35.5328L34.7094 20.1323H31.2777L30.4535 22.5658H29L32.2505 13.5627H33.7606ZM76.6702 15.9331C76.8255 15.9326 76.9803 15.9495 77.1318 15.9834V17.2437C76.9358 17.1838 76.7313 17.1563 76.5264 17.1622C76.1303 17.1462 75.747 17.304 75.4771 17.5944C75.2071 17.8847 75.0776 18.2785 75.1225 18.6724V22.5658H73.7751V16.0018H75.0602V17.119H75.0913C75.2705 16.3998 75.9295 15.9049 76.6702 15.9331ZM69.5505 17.0313C68.4587 17.0313 67.8102 17.8738 67.8102 19.2841C67.8102 20.7065 68.4587 21.5363 69.5505 21.5363C70.6422 21.5363 71.2915 20.7065 71.2915 19.2841C71.2915 17.8674 70.6422 17.0313 69.5505 17.0313ZM40.9115 17.0815C39.8821 17.0815 39.1896 17.9736 39.1896 19.2841C39.1896 20.6067 39.8821 21.4924 40.9115 21.4924C41.9594 21.4924 42.6461 20.6251 42.6461 19.2841C42.6461 17.9552 41.9594 17.0815 40.9115 17.0815ZM48.136 17.0815C47.1066 17.0815 46.4142 17.9736 46.4142 19.2841C46.4142 20.6067 47.1066 21.4924 48.136 21.4924C49.1839 21.4924 49.8707 20.6251 49.8707 19.2841C49.8707 17.9552 49.1839 17.0815 48.136 17.0815ZM33.0123 15.0602H32.9748L31.6331 19.0094H34.3533L33.0123 15.0602ZM80.4608 17.0129C80.0177 17.0102 79.5918 17.1847 79.2779 17.4975C78.964 17.8104 78.7881 18.2356 78.7892 18.6788H82.0709C82.0953 18.2397 81.9355 17.8103 81.6298 17.4941C81.3242 17.1778 80.9005 17.0034 80.4608 17.0129Z" fill="black"/>
<rect x="0.3625" y="0.3625" width="93.525" height="28.275" rx="3.9875" stroke="#A6A6A6" stroke-width="0.725"/>
</svg>
