<svg width="94" height="29" viewBox="0 0 94 29" fill="none" xmlns="http://www.w3.org/2000/svg">
<rect x="0.361538" y="0.361538" width="93.2769" height="28.2" rx="3.97692" fill="white"/>
<path fill-rule="evenodd" clip-rule="evenodd" d="M6.82234 5.45697C6.61193 5.67968 6.48828 6.02458 6.48828 6.47217V22.4507C6.48828 22.8983 6.61193 23.2432 6.82234 23.4659L6.87585 23.518L15.8268 14.567V14.3559L6.87585 5.40491L6.82234 5.45697Z" fill="#00D7FE"/>
<mask id="mask0_303_72" style="mask-type:alpha" maskUnits="userSpaceOnUse" x="15" y="11" width="9" height="7">
<path d="M18.8096 17.5518L15.8269 14.567V14.3558L18.811 11.3717L22.4134 13.418C23.4228 13.9921 23.4228 14.9307 22.4134 15.5041L18.8783 17.5128L18.8096 17.5518Z" fill="white"/>
</mask>
<g mask="url(#mask0_303_72)">
<path fill-rule="evenodd" clip-rule="evenodd" d="M18.8096 17.5518L15.8269 14.567V14.3558L18.811 11.3717L22.4134 13.418C23.4228 13.9921 23.4228 14.9307 22.4134 15.5041L18.8783 17.5128L18.8096 17.5518Z" fill="url(#paint0_linear_303_72)"/>
</g>
<mask id="mask1_303_72" style="mask-type:alpha" maskUnits="userSpaceOnUse" x="6" y="14" width="13" height="10">
<path d="M18.8781 17.5128L15.8267 14.4614L6.82227 23.4659C7.1556 23.818 7.70514 23.8614 8.3241 23.51L18.8781 17.5128Z" fill="white"/>
</mask>
<g mask="url(#mask1_303_72)">
<path fill-rule="evenodd" clip-rule="evenodd" d="M18.8781 17.5128L15.8267 14.4614L6.82227 23.4659C7.1556 23.818 7.70514 23.8614 8.3241 23.51L18.8781 17.5128Z" fill="url(#paint1_linear_303_72)"/>
</g>
<mask id="mask2_303_72" style="mask-type:alpha" maskUnits="userSpaceOnUse" x="6" y="5" width="13" height="10">
<path d="M18.8781 11.41L8.3241 5.41284C7.70514 5.06142 7.1556 5.10481 6.82227 5.45695L15.8267 14.4614L18.8781 11.41Z" fill="white"/>
</mask>
<g mask="url(#mask2_303_72)">
<path fill-rule="evenodd" clip-rule="evenodd" d="M18.8781 11.41L8.3241 5.41284C7.70514 5.06142 7.1556 5.10481 6.82227 5.45695L15.8267 14.4614L18.8781 11.41Z" fill="url(#paint2_linear_303_72)"/>
</g>
<path fill-rule="evenodd" clip-rule="evenodd" d="M75.1232 22.3814H76.4725V13.3422H75.1232V22.3814ZM87.276 16.5982L85.7293 20.5173H85.683L84.0778 16.5982H82.6244L85.0316 22.0755L83.6592 25.1226H85.067L88.7764 16.5982H87.276ZM79.6244 21.3546C79.1819 21.3546 78.5658 21.1341 78.5658 20.5874C78.5658 19.8897 79.3337 19.6221 79.9961 19.6221C80.5897 19.6221 80.8681 19.7501 81.2289 19.9244C81.124 20.7617 80.4031 21.3546 79.6244 21.3546ZM79.7871 16.4008C78.8102 16.4008 77.7986 16.8311 77.38 17.7848L78.5774 18.2844C78.8333 17.7848 79.3098 17.6214 79.8102 17.6214C80.508 17.6214 81.2173 18.04 81.2289 18.7848V18.8774C80.9845 18.7378 80.4617 18.5288 79.8218 18.5288C78.5311 18.5288 77.2165 19.2382 77.2165 20.5636C77.2165 21.7733 78.2751 22.5528 79.461 22.5528C80.3684 22.5528 80.8681 22.1457 81.1826 21.6684H81.2289V22.3662H82.5312V18.9012C82.5312 17.296 81.3337 16.4008 79.7871 16.4008ZM71.4486 17.6987H69.5295V14.6004H71.4486C72.4572 14.6004 73.0299 15.4355 73.0299 16.1492C73.0299 16.8499 72.4572 17.6987 71.4486 17.6987ZM71.4138 13.3422H68.181V22.3814H69.5295V18.9569H71.4138C72.9092 18.9569 74.3792 17.8737 74.3792 16.1492C74.3792 14.4247 72.9092 13.3422 71.4138 13.3422ZM53.7845 21.3561C52.8525 21.3561 52.0723 20.5759 52.0723 19.5043C52.0723 18.4211 52.8525 17.6286 53.7845 17.6286C54.705 17.6286 55.4266 18.4211 55.4266 19.5043C55.4266 20.5759 54.705 21.3561 53.7845 21.3561ZM55.3333 17.1044H55.2871C54.9841 16.7436 54.402 16.4175 53.6681 16.4175C52.1301 16.4175 50.7208 17.7682 50.7208 19.5043C50.7208 21.2281 52.1301 22.568 53.6681 22.568C54.402 22.568 54.9841 22.2418 55.2871 21.8687H55.3333V22.3113C55.3333 23.4884 54.705 24.1175 53.6912 24.1175C52.864 24.1175 52.3514 23.5231 52.1417 23.022L50.9652 23.5116C51.3029 24.3272 52.2003 25.3287 53.6912 25.3287C55.2755 25.3287 56.6154 24.3966 56.6154 22.1254V16.6033H55.3333V17.1044ZM57.5474 22.3814H58.8988V13.3415H57.5474V22.3814ZM60.8902 19.3994C60.8555 18.2114 61.8107 17.6055 62.4976 17.6055C63.0341 17.6055 63.4882 17.873 63.6393 18.2577L60.8902 19.3994ZM65.084 18.3741C64.8281 17.6872 64.0471 16.4175 62.4513 16.4175C60.8671 16.4175 59.5511 17.6633 59.5511 19.4927C59.5511 21.2165 60.8555 22.568 62.6024 22.568C64.0124 22.568 64.8281 21.706 65.1657 21.205L64.1173 20.5057C63.768 21.0184 63.2901 21.3561 62.6024 21.3561C61.9155 21.3561 61.426 21.0415 61.1115 20.4247L65.2236 18.7241L65.084 18.3741ZM32.3229 17.3611V18.6655H35.4444C35.3511 19.3994 35.1067 19.9352 34.7343 20.3083C34.2795 20.7624 33.5687 21.2628 32.3229 21.2628C30.4009 21.2628 28.8977 19.714 28.8977 17.792C28.8977 15.8694 30.4009 14.3205 32.3229 14.3205C33.3598 14.3205 34.1168 14.7284 34.6758 15.2526L35.5962 14.3321C34.8153 13.5866 33.7791 13.0154 32.3229 13.0154C29.6901 13.0154 27.4768 15.1593 27.4768 17.792C27.4768 20.4248 29.6901 22.568 32.3229 22.568C33.7437 22.568 34.8153 22.1023 35.6541 21.2281C36.516 20.3662 36.7843 19.155 36.7843 18.176C36.7843 17.873 36.7611 17.5939 36.7141 17.3611H32.3229ZM40.3338 21.3561C39.4018 21.3561 38.5977 20.5874 38.5977 19.4927C38.5977 18.3857 39.4018 17.6286 40.3338 17.6286C41.2652 17.6286 42.0692 18.3857 42.0692 19.4927C42.0692 20.5874 41.2652 21.3561 40.3338 21.3561ZM40.3338 16.4175C38.6324 16.4175 37.2463 17.7103 37.2463 19.4927C37.2463 21.2628 38.6324 22.568 40.3338 22.568C42.0345 22.568 43.4207 21.2628 43.4207 19.4927C43.4207 17.7103 42.0345 16.4175 40.3338 16.4175ZM47.0679 21.3561C46.1358 21.3561 45.3317 20.5874 45.3317 19.4927C45.3317 18.3857 46.1358 17.6286 47.0679 17.6286C47.9999 17.6286 48.8032 18.3857 48.8032 19.4927C48.8032 20.5874 47.9999 21.3561 47.0679 21.3561ZM47.0679 16.4175C45.3672 16.4175 43.981 17.7103 43.981 19.4927C43.981 21.2628 45.3672 22.568 47.0679 22.568C48.7685 22.568 50.1547 21.2628 50.1547 19.4927C50.1547 17.7103 48.7685 16.4175 47.0679 16.4175Z" fill="black"/>
<path d="M31.9095 8.34989C31.9095 8.9155 31.7316 9.37095 31.3757 9.71625C31.0198 10.0594 30.5485 10.231 29.9617 10.231C29.3283 10.231 28.8231 10.0139 28.446 9.57961C28.071 9.14534 27.8835 8.56173 27.8835 7.82876C27.8835 7.10427 28.0731 6.52384 28.4523 6.08745C28.8315 5.64894 29.3346 5.42969 29.9617 5.42969C30.4701 5.42969 30.8959 5.56209 31.2391 5.82689C31.5844 6.09168 31.7983 6.45075 31.8809 6.90409H31.2994C31.1999 6.5948 31.0368 6.35966 30.8101 6.19866C30.5834 6.03767 30.3006 5.95717 29.9617 5.95717C29.5083 5.95717 29.1461 6.12664 28.875 6.46558C28.6059 6.80452 28.4714 7.25892 28.4714 7.82876C28.4714 8.40708 28.6049 8.86466 28.8718 9.20148C29.1408 9.53619 29.5052 9.70354 29.9649 9.70354C30.3758 9.70354 30.7074 9.58385 30.9594 9.34447C31.2137 9.10509 31.3408 8.79157 31.3408 8.40391V8.29269H30.0507V7.79063H31.9095V8.34989Z" fill="#666666"/>
<path d="M35.8941 9.60821V10.123H33.0533V5.53773H35.8941V6.05249H33.6253V7.52372H35.7765V8.03213H33.6253V9.60821H35.8941Z" fill="#666666"/>
<path d="M38.8237 10.123H38.2517V6.05249H36.7742V5.53773H40.3013V6.05249H38.8237V10.123Z" fill="#666666"/>
<path d="M43.8536 10.123H43.2816V5.53773H43.8536V10.123Z" fill="#666666"/>
<path d="M46.9166 10.123H46.3447V6.05249H44.8671V5.53773H48.3942V6.05249H46.9166V10.123Z" fill="#666666"/>
<path d="M53.3033 5.42969C53.9537 5.42969 54.4653 5.64576 54.8381 6.07791C55.2131 6.50795 55.4005 7.09156 55.4005 7.82876C55.4005 8.56596 55.2131 9.15064 54.8381 9.58279C54.4653 10.0149 53.9537 10.231 53.3033 10.231C52.6487 10.231 52.134 10.0149 51.759 9.58279C51.3841 9.15064 51.1966 8.56596 51.1966 7.82876C51.1966 7.09156 51.3851 6.50795 51.7622 6.07791C52.1414 5.64576 52.6551 5.42969 53.3033 5.42969ZM53.3033 5.95717C52.8373 5.95717 52.4676 6.12558 52.1944 6.4624C51.9211 6.79923 51.7844 7.25468 51.7844 7.82876C51.7844 8.40285 51.919 8.85936 52.188 9.1983C52.4592 9.53513 52.8309 9.70354 53.3033 9.70354C53.7715 9.70354 54.1401 9.53407 54.4091 9.19512C54.6782 8.85618 54.8127 8.40073 54.8127 7.82876C54.8127 7.25256 54.6782 6.79711 54.4091 6.4624C54.1401 6.12558 53.7715 5.95717 53.3033 5.95717Z" fill="#666666"/>
<path d="M57.0909 10.123H56.5253V5.53773H57.0813L59.5694 9.10615H59.6202V5.53773H60.1858V10.123H59.6298L57.1417 6.56726H57.0909V10.123Z" fill="#666666"/>
<rect x="0.361538" y="0.361538" width="93.2769" height="28.2" rx="3.97692" stroke="#A6A6A6" stroke-width="0.723077"/>
<defs>
<linearGradient id="paint0_linear_303_72" x1="21.7567" y1="14.4616" x2="15.8269" y2="14.4616" gradientUnits="userSpaceOnUse">
<stop stop-color="#FFBC00"/>
<stop offset="1" stop-color="#FFDA03"/>
</linearGradient>
<linearGradient id="paint1_linear_303_72" x1="17.2198" y1="17.3326" x2="9.48037" y2="23.712" gradientUnits="userSpaceOnUse">
<stop stop-color="#E22652"/>
<stop offset="1" stop-color="#FF3A44"/>
</linearGradient>
<linearGradient id="paint2_linear_303_72" x1="8.18575" y1="6.54096" x2="13.3458" y2="11.0782" gradientUnits="userSpaceOnUse">
<stop stop-color="#0ED574"/>
<stop offset="1" stop-color="#07F076"/>
</linearGradient>
</defs>
</svg>
