<svg width="32" height="32" viewBox="0 0 32 32" fill="none" xmlns="http://www.w3.org/2000/svg">
<path fill-rule="evenodd" clip-rule="evenodd" d="M8.97302 13.7061C9.48312 6.35677 12.3278 1.06665 15.9981 1.06665C17.7858 1.06665 19.3814 2.3262 20.6091 4.46975C19.8073 4.63848 19.014 4.84362 18.2319 5.08451C17.5284 4.00176 16.749 3.37776 15.9981 3.37776C14.3907 3.37776 12.6576 6.19731 11.8058 10.474C11.8703 10.4342 11.9338 10.3942 11.997 10.3542C12.1432 10.2619 12.2881 10.1704 12.4405 10.0857C15.8653 8.15828 19.4241 6.88486 22.468 6.50122C25.8643 6.07251 28.3069 6.81322 29.3543 8.57775C30.2334 10.0569 29.9605 12.0132 28.6248 14.166C28.1028 13.5928 27.5132 13.0243 26.8928 12.4639C27.499 11.3222 27.6615 10.3469 27.2997 9.7333C26.8976 9.05614 25.8086 8.69561 24.27 8.69561C23.7677 8.69753 23.2661 8.73072 22.7682 8.79499C20.0291 9.14165 16.7811 10.3111 13.6256 12.086C12.8603 12.5331 12.1121 13.0072 11.3823 13.5073C11.3183 14.2249 11.272 14.9564 11.2625 15.7237C10.4049 15.0639 9.6314 14.3879 8.97302 13.7061ZM2.64308 8.57775C3.51855 7.1021 5.381 6.35215 7.95402 6.39722C7.70371 7.12868 7.49018 7.90521 7.30513 8.72219C6.0026 8.78575 5.05714 9.12894 4.70126 9.7333C4.17693 10.6138 4.70957 12.2154 6.12834 14.025C7.80099 16.1616 10.4653 18.3144 13.6256 20.0917C14.3945 20.5263 15.183 20.9273 15.9886 21.2935C16.6743 20.9768 17.3647 20.6383 18.0504 20.265C17.8748 21.3928 17.6435 22.3716 17.3837 23.2117C16.1927 23.7756 15.0016 24.2586 13.8391 24.6469L13.0562 24.8826C12.259 25.1253 11.5638 25.3067 10.9327 25.4373C10.9301 25.4379 10.9276 25.4386 10.9252 25.4393C10.9107 25.4431 10.8981 25.4465 10.8829 25.4465L10.6231 25.5008C10.253 25.5725 9.89119 25.6302 9.52938 25.6765C8.90303 25.7574 8.30159 25.7978 7.74049 25.7978C5.27542 25.7978 3.49601 25.0398 2.64308 23.5999C1.76287 22.1185 2.03571 20.1656 3.36671 18.0163C3.92016 18.6067 4.50001 19.1731 5.10459 19.7138C4.49722 20.8555 4.3347 21.8308 4.70126 22.4444C5.21966 23.3249 6.9101 23.6762 9.22332 23.3838C10.4333 23.2302 11.7489 22.9008 13.1072 22.4444C13.0043 22.3884 12.9007 22.3351 12.7974 22.2821C12.6769 22.2201 12.5569 22.1585 12.4393 22.0931C9.01454 20.1645 6.10462 17.7991 4.24218 15.4256C4.03814 15.1679 3.87562 14.9333 3.72733 14.7126C2.08672 12.3425 1.68932 10.184 2.64308 8.57775ZM18.6815 12.2651C19.6957 11.8734 20.6874 11.5614 21.6234 11.3488C24.1442 13.0058 26.2807 14.8744 27.7541 16.7521C29.8348 19.4018 30.4006 21.8354 29.3531 23.5999C28.5002 25.0398 26.7208 25.7978 24.2557 25.7978C24.2231 25.7978 24.1872 25.7946 24.1514 25.7914C24.1155 25.7883 24.0796 25.7851 24.047 25.7851C24.3024 25.0245 24.5174 24.2515 24.6911 23.4694C26.0031 23.4058 26.9343 23.0534 27.2997 22.4444C27.8181 21.5639 27.2867 19.9623 25.8726 18.1515C25.1324 17.2132 24.1775 16.2691 23.092 15.3528C23.0941 15.4597 23.0987 15.5649 23.1034 15.6698C23.1096 15.8088 23.1157 15.9473 23.1157 16.0888C23.1157 24.1638 20.3956 30.3576 16.6838 31.0429C16.4608 31.0879 16.2354 31.111 15.9981 31.111C14.2104 31.111 12.6149 29.8515 11.3871 27.7079C12.1617 27.5496 12.9577 27.337 13.7644 27.0897C14.4678 28.1817 15.2472 28.7999 15.9981 28.7999C16.1322 28.7999 16.2804 28.778 16.4252 28.7317C18.5427 28.1043 20.7432 22.9043 20.7432 16.0888C20.7432 15.1817 20.6874 14.3243 20.6139 13.4842C19.9923 13.0694 19.3529 12.6534 18.6815 12.2651ZM18.0014 14.9333L16 13.7777L13.9985 14.9333V17.2444L16 18.3999L18.0014 17.2444V14.9333Z" fill="#17CE92"/>
</svg>
