<svg width="164" height="164" viewBox="0 0 164 164" fill="none" xmlns="http://www.w3.org/2000/svg">
<path fill-rule="evenodd" clip-rule="evenodd" d="M45.9869 70.2438C48.6012 32.5786 63.1801 5.46667 81.9905 5.46667C91.1525 5.46667 99.3296 11.9219 105.622 22.9076C101.513 23.7723 97.447 24.8236 93.4385 26.0582C89.8332 20.5091 85.8389 17.3111 81.9905 17.3111C73.7526 17.3111 64.8703 31.7613 60.5051 53.6794C60.8354 53.4756 61.1608 53.2702 61.4849 53.0656C62.2343 52.5924 62.9767 52.1236 63.7577 51.6895C81.3096 41.8113 99.5485 35.285 115.149 33.3188C132.555 31.1217 145.073 34.9178 150.441 43.961C154.946 51.5415 153.548 61.5678 146.702 72.6009C144.027 69.6634 141.006 66.7497 137.826 63.8774C140.933 58.0263 141.766 53.0279 139.911 49.8833C137.85 46.4128 132.269 44.5651 124.384 44.5651C121.81 44.5749 119.239 44.745 116.687 45.0744C102.649 46.8511 86.0031 52.8444 69.8312 61.9409C65.9094 64.2321 62.0747 66.6618 58.3347 69.2252C58.0064 72.9029 57.7693 76.6516 57.7206 80.584C53.325 77.2024 49.3611 73.7379 45.9869 70.2438ZM13.546 43.961C18.0328 36.3984 27.5778 32.5549 40.7645 32.7858C39.4817 36.5346 38.3874 40.5143 37.4389 44.7013C30.7635 45.027 25.918 46.7859 24.0941 49.8833C21.407 54.396 24.1367 62.6042 31.4079 71.8783C39.9802 82.8285 53.6351 93.8616 69.8312 102.97C73.7721 105.197 77.813 107.252 81.9419 109.129C85.4559 107.506 88.9942 105.771 92.5083 103.858C91.6085 109.638 90.423 114.654 89.0915 118.96C82.9876 121.85 76.8836 124.325 70.9256 126.315L66.913 127.523C62.8275 128.767 59.2648 129.697 56.0305 130.366C56.0172 130.37 56.0043 130.373 55.9916 130.376C55.9176 130.396 55.853 130.413 55.7751 130.413L54.4437 130.692C52.5468 131.059 50.6926 131.355 48.8383 131.592C45.6282 132.007 42.5458 132.214 39.6702 132.214C27.0367 132.214 17.9172 128.329 13.546 120.95C9.03489 113.358 10.4332 103.349 17.2546 92.3336C20.091 95.3594 23.0628 98.2621 26.1612 101.033C23.0484 106.885 22.2155 111.883 24.0941 115.028C26.7509 119.54 35.4144 121.341 47.2697 119.842C53.4709 119.055 60.2133 117.367 67.1744 115.028C66.6472 114.741 66.116 114.468 65.587 114.196C64.9692 113.878 64.3542 113.562 63.7516 113.227C46.1997 103.343 31.2864 91.2203 21.7413 79.0561C20.6956 77.7354 19.8627 76.5332 19.1028 75.4021C10.6946 63.2556 8.65795 52.1929 13.546 43.961ZM95.7426 62.8588C100.941 60.8512 106.023 59.2522 110.82 58.1625C123.739 66.6549 134.689 76.2312 142.24 85.8548C152.903 99.4344 155.803 111.907 150.435 120.95C146.064 128.329 136.944 132.214 124.311 132.214C124.144 132.214 123.96 132.198 123.776 132.181C123.592 132.165 123.408 132.149 123.241 132.149C124.55 128.251 125.652 124.289 126.542 120.281C133.266 119.955 138.039 118.149 139.911 115.028C142.568 110.515 139.844 102.307 132.597 93.0266C128.804 88.2177 123.91 83.3793 118.347 78.683C118.357 79.2309 118.381 79.77 118.405 80.3078C118.437 81.02 118.468 81.73 118.468 82.4554C118.468 123.84 104.528 155.583 85.5045 159.095C84.3616 159.326 83.2064 159.444 81.9905 159.444C72.8285 159.444 64.6514 152.989 58.359 142.003C62.329 141.192 66.4084 140.102 70.5426 138.835C74.1478 144.431 78.1421 147.6 81.9905 147.6C82.6775 147.6 83.4375 147.487 84.1792 147.25C95.0313 144.035 106.309 117.385 106.309 82.4554C106.309 77.8065 106.023 73.4122 105.646 69.1067C102.461 66.9807 99.1837 64.8487 95.7426 62.8588ZM92.2576 76.5332L82 70.611L71.7424 76.5332V88.3776L82 94.2998L92.2576 88.3776V76.5332Z" fill="#17CE92"/>
</svg>
