<svg width="36" height="36" viewBox="0 0 36 36" fill="none" xmlns="http://www.w3.org/2000/svg">
<path fill-rule="evenodd" clip-rule="evenodd" d="M10.0946 15.4193C10.6684 7.15134 13.8687 1.19995 17.9978 1.19995C20.009 1.19995 21.804 2.61695 23.1852 5.02844C22.2832 5.21826 21.3907 5.44904 20.5108 5.72004C19.7194 4.50194 18.8426 3.79995 17.9978 3.79995C16.1895 3.79995 14.2397 6.97194 13.2815 11.7832C13.354 11.7385 13.4254 11.6934 13.4966 11.6485C13.6611 11.5446 13.8241 11.4417 13.9955 11.3464C17.8483 9.17803 21.852 7.74544 25.2765 7.31384C29.0973 6.83154 31.8452 7.66484 33.0236 9.64993C34.0125 11.3139 33.7055 13.5148 32.2028 15.9367C31.6156 15.2919 30.9523 14.6523 30.2544 14.0218C30.9363 12.7374 31.1192 11.6402 30.7121 10.9499C30.2597 10.1881 29.0346 9.78253 27.3037 9.78253C26.7386 9.78469 26.1743 9.82203 25.6141 9.89433C22.5326 10.2843 18.8786 11.5999 15.3287 13.5967C14.4678 14.0997 13.6261 14.633 12.8051 15.1957C12.733 16.003 12.681 16.8259 12.6703 17.6891C11.7054 16.9468 10.8353 16.1863 10.0946 15.4193ZM2.97341 9.64993C3.95831 7.98984 6.05356 7.14614 8.94821 7.19684C8.66662 8.01974 8.4264 8.89333 8.2182 9.81243C6.75286 9.88393 5.68922 10.27 5.28886 10.9499C4.69899 11.9405 5.2982 13.7423 6.89433 15.7781C8.77605 18.1818 11.7735 20.6037 15.3287 22.6031C16.1938 23.092 17.0808 23.5431 17.9871 23.9551C18.7585 23.5989 19.5352 23.218 20.3066 22.7981C20.1091 24.0669 19.8488 25.168 19.5566 26.1131C18.2167 26.7475 16.8768 27.2909 15.5689 27.7277L14.6881 27.9929C13.7913 28.2659 13.0093 28.47 12.2993 28.6169C12.2964 28.6177 12.2935 28.6184 12.2907 28.6192C12.2745 28.6235 12.2603 28.6273 12.2432 28.6273L11.951 28.6884C11.5346 28.769 11.1275 28.834 10.7205 28.886C10.0158 28.977 9.33923 29.0225 8.70799 29.0225C5.93478 29.0225 3.93295 28.1697 2.97341 26.5499C1.98317 24.8833 2.29012 22.6863 3.78749 20.2683C4.41012 20.9325 5.06245 21.5697 5.74261 22.178C5.05931 23.4624 4.87648 24.5596 5.28886 25.2499C5.87206 26.2405 7.7738 26.6357 10.3762 26.3068C11.7374 26.1339 13.2174 25.7634 14.7455 25.2499C14.6298 25.1869 14.5132 25.127 14.397 25.0673C14.2614 24.9976 14.1264 24.9282 13.9942 24.8547C10.1413 22.685 6.86764 20.0239 4.77239 17.3537C4.54284 17.0638 4.36001 16.7999 4.19319 16.5516C2.3475 13.8853 1.90043 11.4569 2.97341 9.64993ZM21.0166 13.7982C22.1576 13.3575 23.2733 13.0065 24.3263 12.7673C27.1622 14.6315 29.5657 16.7336 31.2233 18.8461C33.5641 21.827 34.2006 24.5648 33.0222 26.5499C32.0627 28.1697 30.0609 29.0225 27.2877 29.0225C27.251 29.0225 27.2106 29.0189 27.1702 29.0153C27.1298 29.0118 27.0895 29.0082 27.0528 29.0082C27.3402 28.1525 27.582 27.283 27.7774 26.403C29.2534 26.3315 30.3011 25.935 30.7121 25.2499C31.2953 24.2593 30.6974 22.4575 29.1066 20.4204C28.2739 19.3648 27.1996 18.3027 25.9785 17.2718C25.9807 17.3921 25.986 17.5104 25.9913 17.6285C25.9982 17.7848 26.0051 17.9407 26.0051 18.0999C26.0051 27.1843 22.945 34.1523 18.7692 34.9232C18.5183 34.9739 18.2647 34.9999 17.9978 34.9999C15.9866 34.9999 14.1917 33.5829 12.8104 31.1714C13.6819 30.9933 14.5774 30.7541 15.4849 30.4759C16.2762 31.7044 17.153 32.3999 17.9978 32.3999C18.1486 32.3999 18.3154 32.3752 18.4783 32.3232C20.8604 31.6173 23.336 25.7673 23.336 18.0999C23.336 17.0794 23.2733 16.1148 23.1906 15.1697C22.4913 14.703 21.7719 14.235 21.0166 13.7982ZM20.2516 16.7999L17.9999 15.4999L15.7482 16.7999V19.3999L17.9999 20.6999L20.2516 19.3999V16.7999Z" fill="white"/>
</svg>
