<svg width="1280" height="125" viewBox="0 0 1280 125" fill="none" xmlns="http://www.w3.org/2000/svg">
<path fill-rule="evenodd" clip-rule="evenodd" d="M0 40.8434L42.6667 29.6733C85.3333 18.2934 170.667 -3.73218 256 1.66933C341.333 7.2806 426.667 40.8434 512 60.4042C597.333 80.1747 682.667 85.4189 768 71.6267C853.333 57.6247 938.667 24.062 1024 18.4507C1109.33 13.0492 1194.67 35.0748 1237.33 46.4546L1280 57.6247V124.75H1237.33C1194.67 124.75 1109.33 124.75 1024 124.75C938.667 124.75 853.333 124.75 768 124.75C682.667 124.75 597.333 124.75 512 124.75C426.667 124.75 341.333 124.75 256 124.75C170.667 124.75 85.3333 124.75 42.6667 124.75H0V40.8434Z" fill="white"/>
</svg>
