<svg width="22" height="22" viewBox="0 0 22 22" fill="none" xmlns="http://www.w3.org/2000/svg">
<path d="M18.7917 2.29167C19.2271 2.72708 19.25 3.04792 19.25 11C19.25 18.9521 19.2271 19.2729 18.7917 19.7083C18.3562 20.1438 18.0354 20.1667 11.9167 20.1667C3.9875 20.1667 4.58333 20.4646 4.58333 16.5V13.75H5.5H6.41667V16.0417V18.3333H11.9167H17.4167V11V3.66667H11.9167H6.41667V5.95833V8.25H5.5H4.58333V5.5C4.58333 1.53542 3.9875 1.83333 11.9167 1.83333C18.0354 1.83333 18.3562 1.85625 18.7917 2.29167Z" fill="#329494"/>
<path d="M13.8996 9.16667C15.0225 10.0375 15.985 10.8396 16.0309 10.9542C16.0767 11.1375 11.9059 14.4375 11.608 14.4375C11.5392 14.4375 11.4934 13.8646 11.4934 13.1771V11.9167H7.82671H4.16004V11V10.0833H7.82671H11.4934V8.82292C11.4934 8.13542 11.5621 7.5625 11.6538 7.58542C11.7684 7.58542 12.7538 8.29583 13.8996 9.16667Z" fill="#329494"/>
</svg>
